<svg width="55" height="54" viewBox="0 0 55 54" fill="none" xmlns="http://www.w3.org/2000/svg">
<g filter="url(#filter0_d_64_60)">
<path d="M21.5441 2.31094C21.816 0.969688 23.0031 0 24.3806 0H29.8C31.1775 0 32.3647 0.969688 32.6366 2.31094L33.9506 8.65469C35.2285 9.19844 36.4247 9.89625 37.5122 10.7209L43.6566 8.68188C44.9616 8.24688 46.3935 8.79063 47.0822 9.98688L49.7919 14.6813C50.4806 15.8775 50.236 17.3819 49.2028 18.2972L44.3725 22.5928C44.4541 23.2634 44.4903 23.9522 44.4903 24.65C44.4903 25.3478 44.445 26.0366 44.3725 26.7072L49.2119 31.0119C50.245 31.9272 50.4806 33.4406 49.801 34.6278L47.0913 39.3222C46.4025 40.5094 44.9706 41.0622 43.6656 40.6272L37.5213 38.5881C36.4247 39.4128 35.2285 40.1016 33.9597 40.6544L32.6547 46.9891C32.3738 48.3394 31.1866 49.3 29.8181 49.3H24.3988C23.0213 49.3 21.8341 48.3303 21.5622 46.9891L20.2572 40.6544C18.9794 40.1106 17.7922 39.4128 16.6956 38.5881L10.5241 40.6272C9.21908 41.0622 7.7872 40.5184 7.09845 39.3222L4.38877 34.6278C3.70002 33.4316 3.9447 31.9272 4.97783 31.0119L9.8172 26.7072C9.73564 26.0366 9.69939 25.3478 9.69939 24.65C9.69939 23.9522 9.7447 23.2634 9.8172 22.5928L4.97783 18.2881C3.9447 17.3728 3.70908 15.8594 4.38877 14.6722L7.09845 9.97781C7.7872 8.78156 9.21908 8.23781 10.5241 8.67281L16.6685 10.7119C17.765 9.88719 18.9613 9.19844 20.23 8.64562L21.5441 2.31094ZM27.0903 31.9C31.096 31.8819 34.3313 28.6284 34.3131 24.6228C34.295 20.6172 31.0416 17.3819 27.036 17.4C23.0303 17.4181 19.795 20.6716 19.8131 24.6772C19.8313 28.6828 23.0847 31.9181 27.0903 31.9Z" fill="white"/>
</g>
<defs>
<filter id="filter0_d_64_60" x="0" y="0" width="54.1858" height="57.3" filterUnits="userSpaceOnUse" color-interpolation-filters="sRGB">
<feFlood flood-opacity="0" result="BackgroundImageFix"/>
<feColorMatrix in="SourceAlpha" type="matrix" values="0 0 0 0 0 0 0 0 0 0 0 0 0 0 0 0 0 0 127 0" result="hardAlpha"/>
<feOffset dy="4"/>
<feGaussianBlur stdDeviation="2"/>
<feComposite in2="hardAlpha" operator="out"/>
<feColorMatrix type="matrix" values="0 0 0 0 0 0 0 0 0 0 0 0 0 0 0 0 0 0 0.25 0"/>
<feBlend mode="normal" in2="BackgroundImageFix" result="effect1_dropShadow_64_60"/>
<feBlend mode="normal" in="SourceGraphic" in2="effect1_dropShadow_64_60" result="shape"/>
</filter>
</defs>
</svg>
