<svg width="66" height="64" viewBox="0 0 66 64" fill="none" xmlns="http://www.w3.org/2000/svg">
<g filter="url(#filter0_d_24_130)">
<path d="M33 56C29.0367 56 25.2908 55.2645 21.7625 53.7936C18.2342 52.3227 15.1534 50.316 12.5202 47.7736C9.887 45.2312 7.80867 42.2567 6.2852 38.85C4.76173 35.4433 4 31.8267 4 28C4 24.1267 4.7859 20.4867 6.3577 17.08C7.9295 13.6733 10.0562 10.71 12.7377 8.19C15.4192 5.67 18.5483 3.67547 22.125 2.2064C25.7017 0.737334 29.52 0.00186667 33.58 0C37.4467 0 41.0958 0.642133 44.5275 1.9264C47.9592 3.21067 50.9684 4.984 53.5552 7.2464C56.142 9.5088 58.1962 12.1921 59.7177 15.2964C61.2392 18.4007 62 21.7485 62 25.34C62 30.7067 60.3083 34.8255 56.925 37.6964C53.5417 40.5673 49.4333 42.0019 44.6 42H39.235C38.8 42 38.4984 42.1167 38.3302 42.35C38.162 42.5833 38.0769 42.84 38.075 43.12C38.075 43.68 38.4375 44.4855 39.1625 45.5364C39.8875 46.5873 40.25 47.7885 40.25 49.14C40.25 51.4733 39.5859 53.2 38.2577 54.32C36.9295 55.44 35.1769 56 33 56ZM17.05 30.8C18.3067 30.8 19.3458 30.4033 20.1675 29.61C20.9892 28.8167 21.4 27.8133 21.4 26.6C21.4 25.3867 20.9892 24.3833 20.1675 23.59C19.3458 22.7967 18.3067 22.4 17.05 22.4C15.7933 22.4 14.7542 22.7967 13.9325 23.59C13.1108 24.3833 12.7 25.3867 12.7 26.6C12.7 27.8133 13.1108 28.8167 13.9325 29.61C14.7542 30.4033 15.7933 30.8 17.05 30.8ZM25.75 19.6C27.0067 19.6 28.0458 19.2033 28.8675 18.41C29.6892 17.6167 30.1 16.6133 30.1 15.4C30.1 14.1867 29.6892 13.1833 28.8675 12.39C28.0458 11.5967 27.0067 11.2 25.75 11.2C24.4933 11.2 23.4542 11.5967 22.6325 12.39C21.8108 13.1833 21.4 14.1867 21.4 15.4C21.4 16.6133 21.8108 17.6167 22.6325 18.41C23.4542 19.2033 24.4933 19.6 25.75 19.6ZM40.25 19.6C41.5067 19.6 42.5458 19.2033 43.3675 18.41C44.1892 17.6167 44.6 16.6133 44.6 15.4C44.6 14.1867 44.1892 13.1833 43.3675 12.39C42.5458 11.5967 41.5067 11.2 40.25 11.2C38.9933 11.2 37.9542 11.5967 37.1325 12.39C36.3108 13.1833 35.9 14.1867 35.9 15.4C35.9 16.6133 36.3108 17.6167 37.1325 18.41C37.9542 19.2033 38.9933 19.6 40.25 19.6ZM48.95 30.8C50.2067 30.8 51.2458 30.4033 52.0675 29.61C52.8892 28.8167 53.3 27.8133 53.3 26.6C53.3 25.3867 52.8892 24.3833 52.0675 23.59C51.2458 22.7967 50.2067 22.4 48.95 22.4C47.6933 22.4 46.6542 22.7967 45.8325 23.59C45.0108 24.3833 44.6 25.3867 44.6 26.6C44.6 27.8133 45.0108 28.8167 45.8325 29.61C46.6542 30.4033 47.6933 30.8 48.95 30.8Z" fill="#F7F7F7"/>
</g>
<defs>
<filter id="filter0_d_24_130" x="0" y="0" width="66" height="64" filterUnits="userSpaceOnUse" color-interpolation-filters="sRGB">
<feFlood flood-opacity="0" result="BackgroundImageFix"/>
<feColorMatrix in="SourceAlpha" type="matrix" values="0 0 0 0 0 0 0 0 0 0 0 0 0 0 0 0 0 0 127 0" result="hardAlpha"/>
<feOffset dy="4"/>
<feGaussianBlur stdDeviation="2"/>
<feComposite in2="hardAlpha" operator="out"/>
<feColorMatrix type="matrix" values="0 0 0 0 0 0 0 0 0 0 0 0 0 0 0 0 0 0 0.25 0"/>
<feBlend mode="normal" in2="BackgroundImageFix" result="effect1_dropShadow_24_130"/>
<feBlend mode="normal" in="SourceGraphic" in2="effect1_dropShadow_24_130" result="shape"/>
</filter>
</defs>
</svg>
