<svg width="51" height="51" viewBox="0 0 51 51" fill="none" xmlns="http://www.w3.org/2000/svg">
<g filter="url(#filter0_d_64_25)">
<path d="M19.7083 31.4167C15.3181 31.4167 11.6028 29.8958 8.56267 26.854C5.5225 23.8122 4.00161 20.097 4 15.7083C3.99839 11.3197 5.51928 7.60444 8.56267 4.56267C11.6061 1.52089 15.3213 0 19.7083 0C24.0954 0 27.8114 1.52089 30.8564 4.56267C33.9014 7.60444 35.4215 11.3197 35.4167 15.7083C35.4167 17.4806 35.1347 19.1521 34.5708 20.7229C34.0069 22.2938 33.2417 23.6833 32.275 24.8917L45.8083 38.425C46.2514 38.8681 46.4729 39.4319 46.4729 40.1167C46.4729 40.8014 46.2514 41.3653 45.8083 41.8083C45.3653 42.2514 44.8014 42.4729 44.1167 42.4729C43.4319 42.4729 42.8681 42.2514 42.425 41.8083L28.8917 28.275C27.6833 29.2417 26.2938 30.0069 24.7229 30.5708C23.1521 31.1347 21.4806 31.4167 19.7083 31.4167ZM19.7083 26.5833C22.7292 26.5833 25.2973 25.5264 27.4127 23.4127C29.5281 21.2989 30.5849 18.7308 30.5833 15.7083C30.5817 12.6859 29.5248 10.1186 27.4127 8.00642C25.3005 5.89425 22.7324 4.83656 19.7083 4.83333C16.6843 4.83011 14.117 5.88781 12.0064 8.00642C9.89586 10.125 8.83817 12.6923 8.83333 15.7083C8.8285 18.7243 9.8862 21.2924 12.0064 23.4127C14.1266 25.5329 16.6939 26.5898 19.7083 26.5833Z" fill="#F7F7F7"/>
</g>
<defs>
<filter id="filter0_d_64_25" x="0" y="0" width="50.4729" height="50.4729" filterUnits="userSpaceOnUse" color-interpolation-filters="sRGB">
<feFlood flood-opacity="0" result="BackgroundImageFix"/>
<feColorMatrix in="SourceAlpha" type="matrix" values="0 0 0 0 0 0 0 0 0 0 0 0 0 0 0 0 0 0 127 0" result="hardAlpha"/>
<feOffset dy="4"/>
<feGaussianBlur stdDeviation="2"/>
<feComposite in2="hardAlpha" operator="out"/>
<feColorMatrix type="matrix" values="0 0 0 0 0 0 0 0 0 0 0 0 0 0 0 0 0 0 0.25 0"/>
<feBlend mode="normal" in2="BackgroundImageFix" result="effect1_dropShadow_64_25"/>
<feBlend mode="normal" in="SourceGraphic" in2="effect1_dropShadow_64_25" result="shape"/>
</filter>
</defs>
</svg>
