<svg width="48" height="48" viewBox="0 0 48 48" fill="none" xmlns="http://www.w3.org/2000/svg">
<path d="M47.2098 23.6074C47.2098 35.5302 38.3722 45.387 26.8915 46.9865C25.818 47.1354 24.7197 47.2131 23.6049 47.2131C22.3181 47.2131 21.0544 47.1106 19.8238 46.9121C8.5845 45.1025 0 35.3565 0 23.6074C0 10.5697 10.5694 0 23.6066 0C36.6438 0 47.2131 10.5697 47.2131 23.6074H47.2098Z" fill="white"/>
<path d="M26.8914 18.9563V24.0989H33.2529L32.2456 31.0263H26.8914V46.9868C25.818 47.1356 24.7197 47.2134 23.6048 47.2134C22.318 47.2134 21.0543 47.1108 19.8237 46.9123V31.0263H13.9568V24.0989H19.8237V17.8067C19.8237 13.903 22.9879 10.7371 26.8931 10.7371V10.7404C26.9047 10.7404 26.9146 10.7371 26.9262 10.7371H33.2546V16.7282H29.1194C27.8905 16.7282 26.8931 17.7257 26.8931 18.9547L26.8914 18.9563Z" fill="#1E201E"/>
</svg>
