<svg width="48" height="48" viewBox="0 0 48 48" fill="none" xmlns="http://www.w3.org/2000/svg">
<circle cx="23.6066" cy="23.6066" r="23.6066" fill="white"/>
<path fill-rule="evenodd" clip-rule="evenodd" d="M19.5272 11.0872C20.7859 11.0292 21.1872 11.0164 24.3934 11.0164C27.5996 11.0164 28.0009 11.0303 29.2585 11.0872C30.516 11.144 31.3745 11.3447 32.1256 11.6355C32.9121 11.9327 33.6257 12.3973 34.2158 12.9982C34.8167 13.5873 35.2803 14.2998 35.5764 15.0874C35.8683 15.8385 36.0679 16.697 36.1258 17.9524C36.1838 19.2132 36.1966 19.6145 36.1966 22.8196C36.1966 26.0258 36.1827 26.4271 36.1258 27.6858C36.069 28.9412 35.8683 29.7997 35.5764 30.5508C35.2803 31.3385 34.816 32.0522 34.2158 32.6421C33.6257 33.243 32.9121 33.7066 32.1256 34.0027C31.3745 34.2946 30.516 34.4942 29.2606 34.5521C28.0009 34.61 27.5996 34.6229 24.3934 34.6229C21.1872 34.6229 20.7859 34.609 19.5272 34.5521C18.2718 34.4952 17.4133 34.2946 16.6622 34.0027C15.8745 33.7065 15.1609 33.2422 14.5709 32.6421C13.9704 32.0527 13.5057 31.3393 13.2092 30.5519C12.9184 29.8007 12.7189 28.9423 12.6609 27.6869C12.603 26.4261 12.5901 26.0248 12.5901 22.8196C12.5901 19.6134 12.604 19.2121 12.6609 17.9545C12.7178 16.697 12.9184 15.8385 13.2092 15.0874C13.5062 14.2999 13.9712 13.5866 14.572 12.9972C15.1611 12.3968 15.8741 11.9321 16.6611 11.6355C17.4123 11.3447 18.2707 11.1451 19.5261 11.0872H19.5272ZM29.163 13.2118C27.9183 13.1549 27.5448 13.1431 24.3934 13.1431C21.2419 13.1431 20.8685 13.1549 19.6238 13.2118C18.4724 13.2643 17.8479 13.4564 17.4316 13.6184C16.8811 13.833 16.4873 14.0874 16.0742 14.5005C15.6826 14.8815 15.3812 15.3452 15.1922 15.8578C15.0301 16.2742 14.8381 16.8987 14.7855 18.05C14.7286 19.2947 14.7168 19.6682 14.7168 22.8196C14.7168 25.9711 14.7286 26.3445 14.7855 27.5892C14.8381 28.7406 15.0301 29.3651 15.1922 29.7814C15.381 30.2933 15.6825 30.7579 16.0742 31.1388C16.4551 31.5305 16.9197 31.832 17.4316 32.0208C17.8479 32.1829 18.4724 32.3749 19.6238 32.4275C20.8685 32.4844 21.2408 32.4962 24.3934 32.4962C27.5459 32.4962 27.9183 32.4844 29.163 32.4275C30.3143 32.3749 30.9388 32.1829 31.3552 32.0208C31.9056 31.8062 32.2994 31.5519 32.7125 31.1388C33.1042 30.7579 33.4057 30.2933 33.5946 29.7814C33.7566 29.3651 33.9487 28.7406 34.0012 27.5892C34.0581 26.3445 34.0699 25.9711 34.0699 22.8196C34.0699 19.6682 34.0581 19.2947 34.0012 18.05C33.9487 16.8987 33.7566 16.2742 33.5946 15.8578C33.38 15.3074 33.1256 14.9136 32.7125 14.5005C32.3315 14.1089 31.8677 13.8075 31.3552 13.6184C30.9388 13.4564 30.3143 13.2643 29.163 13.2118V13.2118ZM22.8858 26.4583C23.7277 26.8087 24.6652 26.8561 25.5382 26.5921C26.4112 26.3281 27.1654 25.7693 27.6721 25.011C28.1788 24.2527 28.4065 23.3421 28.3164 22.4345C28.2263 21.527 27.8238 20.6789 27.1779 20.0351C26.7661 19.6236 26.2682 19.3085 25.72 19.1125C25.1718 18.9165 24.587 18.8445 24.0076 18.9016C23.4282 18.9588 22.8688 19.1436 22.3694 19.443C21.8701 19.7423 21.4433 20.1486 21.1199 20.6327C20.7964 21.1167 20.5843 21.6664 20.4988 22.2423C20.4133 22.8182 20.4566 23.4058 20.6255 23.963C20.7944 24.5201 21.0847 25.0329 21.4755 25.4643C21.8663 25.8958 22.348 26.2353 22.8858 26.4583ZM20.1034 18.5297C20.6668 17.9663 21.3356 17.5194 22.0717 17.2145C22.8077 16.9096 23.5966 16.7527 24.3934 16.7527C25.1901 16.7527 25.979 16.9096 26.7151 17.2145C27.4511 17.5194 28.12 17.9663 28.6833 18.5297C29.2467 19.093 29.6936 19.7619 29.9985 20.4979C30.3034 21.234 30.4603 22.0229 30.4603 22.8196C30.4603 23.6164 30.3034 24.4053 29.9985 25.1413C29.6936 25.8774 29.2467 26.5462 28.6833 27.1096C27.5456 28.2474 26.0024 28.8865 24.3934 28.8865C22.7843 28.8865 21.2412 28.2474 20.1034 27.1096C18.9656 25.9718 18.3265 24.4287 18.3265 22.8196C18.3265 21.2106 18.9656 19.6674 20.1034 18.5297V18.5297ZM31.8058 17.6562C31.9454 17.5245 32.0572 17.3662 32.1345 17.1905C32.2118 17.0149 32.2531 16.8255 32.2559 16.6336C32.2587 16.4417 32.2229 16.2512 32.1508 16.0733C32.0786 15.8955 31.9715 15.7339 31.8358 15.5982C31.7001 15.4625 31.5386 15.3554 31.3607 15.2833C31.1829 15.2111 30.9924 15.1754 30.8005 15.1782C30.6086 15.181 30.4192 15.2222 30.2435 15.2995C30.0679 15.3769 29.9095 15.4886 29.7778 15.6282C29.5217 15.8997 29.3815 16.2604 29.3869 16.6336C29.3923 17.0068 29.543 17.3632 29.8069 17.6271C30.0709 17.891 30.4273 18.0417 30.8005 18.0471C31.1737 18.0526 31.5343 17.9124 31.8058 17.6562V17.6562Z" fill="black"/>
</svg>
