<svg width="48" height="48" viewBox="0 0 48 48" fill="none" xmlns="http://www.w3.org/2000/svg">
<circle cx="23.6066" cy="23.6066" r="23.6066" fill="white"/>
<path d="M36.1966 16.4074C35.3285 16.7762 34.3838 17.0416 33.4107 17.1449C34.421 16.5539 35.1776 15.6201 35.5385 14.5189C34.5904 15.0742 33.5519 15.4636 32.4688 15.6699C32.0162 15.1933 31.4687 14.8137 30.8606 14.5547C30.2524 14.2956 29.5966 14.1626 28.934 14.1641C26.253 14.1641 24.0969 16.304 24.0969 18.9301C24.0969 19.2988 24.1423 19.6676 24.2161 20.0224C20.2017 19.8157 16.6214 17.9272 14.2412 15.0357C13.8075 15.7652 13.5802 16.5958 13.583 17.4411C13.583 19.0949 14.437 20.5532 15.7391 21.4109C14.9717 21.3811 14.2223 21.1734 13.5518 20.8046V20.8633C13.5518 23.1793 15.2143 25.0985 17.43 25.5399C17.014 25.6463 16.586 25.7008 16.1562 25.7019C15.8413 25.7019 15.5434 25.6712 15.2427 25.6293C15.8555 27.5178 17.6399 28.8895 19.7648 28.9342C18.1024 30.2165 16.02 30.9708 13.7589 30.9708C13.3532 30.9708 12.9788 30.9568 12.5901 30.9121C14.7348 32.2671 17.2796 33.0493 20.0202 33.0493C28.9169 33.0493 33.7852 25.7913 33.7852 19.4916C33.7852 19.2849 33.7852 19.0781 33.771 18.8714C34.7129 18.1926 35.5385 17.3517 36.1966 16.4074Z" fill="#1E201E"/>
</svg>
